# xmcd
#
# Track frame offsets:
#	150
#	15028
#	25763
#	37802
#	50552
#	61977
#	75511
#	85482
#	96241
#	109221
#	119875
#	129897
#	139420
#	152556
#	166114
#	179267
#	188412
#	198540
#	208047
#	219903
#	233592
#	247935
#	261288
#	274860
#	285963
#	296262
#	311398
#	323132
#
# Disc length: 4458 seconds
#
# Revision: 0
# Processed by: cddbd v1.5.2PL0 Copyright (c) Steve Scherf et al.
# Submitted via: audiograbber 1.83.01
#
DISCID=7711681c
DTITLE=Various Artist - Legends of country music Disc 3
DYEAR=2005
DGENRE=Country
TTITLE0=Let your love flow - Bellamy Brothers
TTITLE1=Louisana man - Connie Smith
TTITLE2=Jolene - Dolly Parton
TTITLE3=I'm moving on - Hank Snow
TTITLE4=Mule train - Frankie Lane
TTITLE5=Coal miner's daughter - Loretta Lynn
TTITLE6=Ballad of Teenage Queen - Johnny Cash
TTITLE7=Honky Tonk merry go round - Patsy Cline
TTITLE8=The pool shark - Dave Dudley
TTITLE9=Love is like a Butterfly - Dolly Parton
TTITLE10=The Wabash canonball - Gene Martin
TTITLE11=When will I be loved - Linda Ronstadt
TTITLE12=Kentucky Gambler - Merle Haggard
TTITLE13=Good hearted Woman - Willie Nelson
TTITLE14=Jambalaya - Hank Williams
TTITLE15=Chug a lug - Roger Miller
TTITLE16=Cowboy Boots - Dave Dudley
TTITLE17=The old Chrisholm trail - Frank Saunders
TTITLE18=Sixteen tons - Tennessee Ernie Ford
TTITLE19=Heartaches by the number - The Kandalls
TTITLE20=Frankie and Johnny - Gene Martin
TTITLE21=Top of the world - Lynn Anderson
TTITLE22=Moonlight Gambler - Frankie Laine
TTITLE23=Hey Good Lookin' - George McCormick
TTITLE24=Fly away again - Dave Dudley
TTITLE25=Dancin' Cowboys - Bellamy Brothers
TTITLE26=Gambler Guitar - Rusty Draper
TTITLE27=Bye Bye Love - The Kendalls
EXTD=
EXTT0=
EXTT1=
EXTT2=
EXTT3=
EXTT4=
EXTT5=
EXTT6=
EXTT7=
EXTT8=
EXTT9=
EXTT10=
EXTT11=
EXTT12=
EXTT13=
EXTT14=
EXTT15=
EXTT16=
EXTT17=
EXTT18=
EXTT19=
EXTT20=
EXTT21=
EXTT22=
EXTT23=
EXTT24=
EXTT25=
EXTT26=
EXTT27=
PLAYORDER=
